<svg xmlns="http://www.w3.org/2000/svg" width="214" height="128">
    <defs>
        <filter id="a">
            <feOffset dx="1" in="SourceAlpha"/>
            <feGaussianBlur result="blurOut"/>
            <feFlood flood-color="#00296B" result="floodOut"/>
            <feComposite in="floodOut" in2="blurOut" operator="out" result="compOut"/>
            <feComposite in="compOut" in2="SourceAlpha" operator="in"/>
            <feComponentTransfer>
                <feFuncA type="linear"/>
            </feComponentTransfer>
            <feBlend in2="SourceGraphic"/>
        </filter>
        <filter id="b">
            <feOffset dx="-1" in="SourceAlpha"/>
            <feGaussianBlur result="blurOut"/>
            <feFlood flood-color="#00296B" result="floodOut"/>
            <feComposite in="floodOut" in2="blurOut" operator="out" result="compOut"/>
            <feComposite in="compOut" in2="SourceAlpha" operator="in"/>
            <feComponentTransfer>
                <feFuncA type="linear"/>
            </feComponentTransfer>
            <feBlend in2="SourceGraphic"/>
        </filter>
        <filter id="c">
            <feOffset dx="-1" in="SourceAlpha"/>
            <feGaussianBlur result="blurOut"/>
            <feFlood flood-color="#00296B" result="floodOut"/>
            <feComposite in="floodOut" in2="blurOut" operator="out" result="compOut"/>
            <feComposite in="compOut" in2="SourceAlpha" operator="in"/>
            <feComponentTransfer>
                <feFuncA type="linear"/>
            </feComponentTransfer>
            <feBlend in2="SourceGraphic"/>
        </filter>
        <filter id="d">
            <feOffset dx="1" in="SourceAlpha"/>
            <feGaussianBlur result="blurOut"/>
            <feFlood flood-color="#00296B" result="floodOut"/>
            <feComposite in="floodOut" in2="blurOut" operator="out" result="compOut"/>
            <feComposite in="compOut" in2="SourceAlpha" operator="in"/>
            <feComponentTransfer>
                <feFuncA type="linear"/>
            </feComponentTransfer>
            <feBlend in2="SourceGraphic"/>
        </filter>
    </defs>
    <path fill="#EAEEF7" fill-rule="evenodd" d="M46 12h122a4 4 0 0 1 4 4v108a4 4 0 0 1-4 4H46a4 4 0 0 1-4-4V16a4 4 0 0 1 4-4z"/>
    <path fill="#DCDCE1" fill-rule="evenodd" d="M34.97 51.155s-6.049 2.822-10.694 6.293c-1.953-3.889-10.973-17.112-11.953-18.25-.979-1.138-3.328-.087-5.661-.629C4.328 38.026 1.109 36.72 1 37.31c-.109.591 2.952 3.776 5.662 3.776h3.145l11.324 21.397s1.773 1.802 4.403 1.258c2.631-.543 10.054-4.216 13.84-6.922.46-.46-4.404-5.664-4.404-5.664z"/>
    <path fill="#00296B" fill-rule="evenodd" d="M60.432 128a270.292 270.292 0 0 1-1.557-6.362s-2.894-13.216-5.661-13.216c-1.501 0-1.259 3.147-1.259 3.147L52.347 128H38.741c-1.144-10.139-2.402-24.977-.625-29.646H69.57c4.224 5.778 5.128 19.915 5.216 29.646H60.432z"/>
    <path fill="#515A7F" fill-rule="evenodd" d="M42.519 18.431h15.727l5.662 23.285H42.519V18.431z"/>
    <path fill="#626C99" fill-rule="evenodd" d="M37.487 98.354c12.598 5.106 33.785 1.527 33.97.629 0-9.989-5.662-19.335-5.662-22.026 0-2.691 3-4.862 4.404-13.845 1.247-7.28 4.624-23.976-17.614-27.06-8.45 0-14.013 3.282-15.727 8.81-1.271 4.096-1.888 6.293-1.888 6.293s4.257 4.688 4.404 6.923c.147 2.234-.629 16.991-.629 16.991s-2.01 22.347-1.258 23.285z"/>
    <path fill="#FFF" fill-rule="evenodd" d="M55.73 36.681V26.612s1.887-1.946 1.887-3.776c0-1.83-1.258-1.258-1.258-1.258h-.629v-5.035s-4.071-3.147-6.92-3.147-5.662 1.24-5.662 3.147c0 3.814 1.259 5.766 1.259 7.552 0 1.785.27 5.825 1.887 6.922.936.636.629 1.259.629 1.259v5.034s1.391 1.259 3.774 1.259c2.384 0 5.033-1.888 5.033-1.888z"/>
    <path fill="#626C99" fill-rule="evenodd" d="M42.519 19.06s1.888-.446 1.888-3.146c0 8.11 15.727 11.328 15.727 11.328l-1.888-10.07s-.187-6.293-9.436-6.293c-6.656 0-6.291 8.181-6.291 8.181z"/>
    <path fill="#FFF" fill-rule="evenodd" d="M64.649 55.835c1.647-3.437 6.35-2.948 6.35-2.948s.968 10.012.817 14.584c-.152 4.571-5.555 24.12-5.869 25.133-.315 1.014 1.175 3.536 1.09 5.081-.085 1.545-2.302 5.64-3.312 5.606-1.01-.034-2.404-4.06-2.348-5.752.057-1.692 1.879-4.128 2.013-5.012.134-.884 2.103-16.997 2.683-22.714.1-3.015-1.776-12.503-1.424-13.978z"/>
    <path fill="#626C99" fill-rule="evenodd" d="M87.479 91.649C85.773 109.041 89.369 128 89.369 128h15.126s1.012-13.075 1.309-17.155c1.605-7.934 3.272 0 3.272 0L111.039 128h14.435s1.777-13.853 1.273-35.691c-1.484 0-37.392-.66-39.268-.66z"/>
    <path fill="#DCDCE1" fill-rule="evenodd" d="M132.346 66.635l-8.836-12.316 7.654-6.81 6.197 14.95-5.015 4.176zm-56.325-4.164l6.197-14.982 7.654 6.824-8.836 12.342-5.015-4.184z"/>
    <path fill="#00296B" fill-rule="evenodd" d="M133.991 53.21s-6.607.94-9.213 0c-2.044 10.485-.616 13.905-.616 17.257 0 3.353.416 1.487 3.906 21.213-4.135 4.662-21.057 5.31-21.057 5.31v-.063c-.215-.008-16.979-.673-21.097-5.278 3.498-19.609 3.915-17.719 3.915-21.051 0-3.333 1.432-6.733-.617-17.154-2.612.933-9.234 0-9.234 0l2.617-15.176s-.688-11.457 24.416-13.854v-.408c25.056 2.41 24.369 13.939 24.369 13.939l2.611 15.265z"/>
    <path fill="#EAEAEF" fill-rule="evenodd" d="M107.016 12.875a4.61 4.61 0 0 1 4.609 4.609v7.282a4.61 4.61 0 0 1-9.219 0v-7.282a4.61 4.61 0 0 1 4.61-4.609z"/>
    <path fill="#FFF" fill-rule="evenodd" d="M106.992 0h.016a7.93 7.93 0 0 1 7.929 7.929v8.142A7.93 7.93 0 0 1 107.008 24h-.016a7.93 7.93 0 0 1-7.929-7.929V7.929A7.93 7.93 0 0 1 106.992 0z"/>
    <path fill="#00296B" fill-rule="evenodd" d="M115.001 10.988l-.001-.001V15l-2-4v-.079c-.644-.007-1.482-.012-2.602-.012-5.085 0-9.062-3.272-9.062-3.272l-.336.485V9.2L99 14V8h.093c.316-3.232 1.808-8 7.907-8 9.159 0 8.016 10.853 8.001 10.988z"/>
    <path fill="#E3E4ED" fill-rule="evenodd" d="M94 45c0-7.18 5.82-13 13-13v26c-7.18 0-13-5.82-13-13z"/>
    <path fill="#A3AAC8" fill-rule="evenodd" d="M107 55c-5.523 0-10-4.477-10-10s4.477-10 10-10v20z"/>
    <path fill="#626C99" fill-rule="evenodd" d="M107 36c-5.354 0-9.712 4.211-9.975 9.5-.008-.167-.025-.331-.025-.5 0-5.523 4.477-10 10-10v1zM107 51a5 5 0 1 1 0-10v10z"/>
    <path fill="#E3E4ED" fill-rule="evenodd" d="M107 50a5 5 0 0 1 0-10v10z"/>
    <path fill="#90B4FF" fill-rule="evenodd" d="M107 32c7.18 0 13 5.82 13 13s-5.82 13-13 13-13-5.82-13-13 5.82-13 13-13z"/>
    <path fill="#0B4CD1" fill-rule="evenodd" d="M107 35c5.523 0 10 4.477 10 10s-4.477 10-10 10-10-4.477-10-10 4.477-10 10-10z"/>
    <path fill="#00296B" fill-rule="evenodd" d="M107 36c-5.354 0-9.712 4.211-9.975 9.5-.008-.167-.025-.331-.025-.5 0-5.523 4.477-10 10-10s10 4.477 10 10c0 .169-.017.333-.025.5-.263-5.289-4.621-9.5-9.975-9.5z"/>
    <path fill="#00296B" fill-rule="evenodd" d="M107 41a5 5 0 1 1-.001 10.001A5 5 0 0 1 107 41z"/>
    <path fill="#90B4FF" fill-rule="evenodd" d="M107 40a5 5 0 1 1 0 10 5 5 0 0 1 0-10z"/>
    <path fill="#FFF" fill-rule="evenodd" d="M137.214 67.664s3.742-5.093-5.1-12.279c-8.842-7.186-10.19-7.361-10.19-7.361s-.712-2.542-3.447-3.898c-2.736-1.356-5.721-2.17-4.643.727.93 2.501 1.849 3.52 2.699 4.333.85.812 4.188 1.776 4.944 3.03.757 1.254 6.008 13.726 13.191 15.451 2.671.642 2.546-.003 2.546-.003zM76.807 67.664s-3.745-5.093 5.105-12.279c8.849-7.186 10.198-7.361 10.198-7.361s.713-2.542 3.45-3.898c2.738-1.356 5.726-2.17 4.647.727-.931 2.501-1.85 3.52-2.701 4.333-.85.812-4.192 1.776-4.949 3.03-.757 1.254-6.013 13.726-13.201 15.451-2.673.642-2.549-.003-2.549-.003z"/>
    <path fill="#DCDCE1" fill-rule="evenodd" d="M179.12 51.155s6.033 2.822 10.666 6.293c1.948-3.889 10.944-17.112 11.921-18.25.976-1.138 3.319-.087 5.646-.629 2.327-.543 5.539-1.849 5.647-1.259.108.591-2.945 3.776-5.647 3.776h-3.137l-11.293 21.397s-1.768 1.802-4.392 1.258c-2.623-.543-10.026-4.216-13.803-6.922-.458-.46 4.392-5.664 4.392-5.664z"/>
    <path fill="#515A7F" fill-rule="evenodd" d="M164 17h7v26h-7V17z"/>
    <path fill="#00296B" fill-rule="evenodd" d="M175.359 128H161.79l.39-16.431s.242-3.147-1.255-3.147c-2.76 0-5.646 13.216-5.646 13.216s-.677 2.961-1.553 6.362h-14.315c.087-9.731.989-23.868 5.202-29.646h31.37c1.772 4.669.517 19.507-.624 29.646z"/>
    <path fill="#626C99" fill-rule="evenodd" d="M176.611 98.354c-12.566 5.106-33.696 1.527-33.88.629 0-9.989 5.646-19.335 5.646-22.026 0-2.691-2.991-4.862-4.392-13.845-1.243-7.28-4.612-23.976 17.568-27.06 8.427 0 13.975 3.282 15.685 8.81 1.267 4.096 1.882 6.293 1.882 6.293s-4.245 4.688-4.392 6.923c-.146 2.234.628 16.991.628 16.991s2.005 22.347 1.255 23.285z"/>
    <path fill="#FFF" fill-rule="evenodd" d="M158.416 36.681V26.612s-1.882-1.946-1.882-3.776c0-1.83 1.254-1.258 1.254-1.258h.628v-5.035s4.06-3.147 6.901-3.147 5.647 1.24 5.647 3.147c0 3.814-1.255 5.766-1.255 7.552 0 1.785-.27 5.825-1.882 6.922-.934.636-.628 1.259-.628 1.259v5.034s-1.387 1.259-3.764 1.259-5.019-1.888-5.019-1.888z"/>
    <path fill="#626C99" fill-rule="evenodd" d="M171.591 21.06s-3.392 1.359-13.153 1.126a2.266 2.266 0 0 0-.438.039V39l-4-1V25.189l-.094-8.017s.169-6.293 11.411-6.293c6.638 0 6.274 10.181 6.274 10.181z"/>
    <path fill="#FFF" fill-rule="evenodd" d="M149.521 55.835c-1.643-3.437-6.333-2.948-6.333-2.948s-.966 10.012-.815 14.584c.151 4.571 5.54 24.12 5.853 25.133.314 1.014-1.171 3.536-1.087 5.081.085 1.545 2.296 5.64 3.303 5.606 1.008-.034 2.397-4.06 2.341-5.752-.056-1.692-1.873-4.128-2.007-5.012-.133-.884-2.097-16.997-2.676-22.714-.1-3.015 1.771-12.503 1.421-13.978z"/>
    <path fill="#0B4CD1" fill-rule="evenodd" d="M10 26H7v-1.268C4.637 22.644 3 18.183 3 13 3 7.817 4.637 3.356 7 1.268V0h3c3.866 0 7 5.82 7 13s-3.134 13-7 13z"/>
    <path fill="#90B4FF" fill-rule="evenodd" d="M7 0c3.866 0 7 5.82 7 13s-3.134 13-7 13-7-5.82-7-13S3.134 0 7 0z"/>
    <path fill="#0B4CD1" fill-rule="evenodd" d="M7 3c2.761 0 5 4.477 5 10S9.761 23 7 23s-5-4.477-5-10S4.239 3 7 3z" filter="url(#a)"/>
    <path fill="#90B4FF" fill-rule="evenodd" d="M7 8c1.657 0 3 2.239 3 5 0 2.762-1.343 5-3 5s-3-2.238-3-5c0-2.761 1.343-5 3-5z" filter="url(#b)"/>
    <path fill="#0B4CD1" fill-rule="evenodd" d="M211 13c0 5.183-1.637 9.644-4 11.732V26h-3c-3.866 0-7-5.82-7-13s3.134-13 7-13h3v1.268c2.363 2.088 4 6.549 4 11.732z"/>
    <path fill="#90B4FF" fill-rule="evenodd" d="M207 0c3.866 0 7 5.82 7 13s-3.134 13-7 13-7-5.82-7-13 3.134-13 7-13z"/>
    <path fill="#0B4CD1" fill-rule="evenodd" d="M207 3c2.761 0 5 4.477 5 10s-2.239 10-5 10-5-4.477-5-10 2.239-10 5-10z" filter="url(#c)"/>
    <path fill="#90B4FF" fill-rule="evenodd" d="M207 8c1.657 0 3 2.239 3 5 0 2.762-1.343 5-3 5s-3-2.238-3-5c0-2.761 1.343-5 3-5z" filter="url(#d)"/>
</svg>
