<svg xmlns="http://www.w3.org/2000/svg" width="66" height="128">
    <path fill="#EAEEF7" fill-rule="evenodd" d="M4 12h58a4 4 0 0 1 4 4v108a4 4 0 0 1-4 4H4a4 4 0 0 1-4-4V16a4 4 0 0 1 4-4z"/>
    <path fill="#626C99" fill-rule="evenodd" d="M13.479 97.649C11.773 115.041 19.369 128 19.369 128h11.126s1.012-13.075 1.309-17.155c1.605-7.934 3.272 0 3.272 0L37.039 128h12.435s3.777-7.853 3.272-29.691c-1.483 0-37.391-.66-39.267-.66zM26.425 7.258h13.191l2.639 23.752H23.787l2.638-23.752z"/>
    <path fill="#DCDCE1" fill-rule="evenodd" d="M58.346 66.635L49.51 54.319l7.654-6.81 6.197 14.95-5.015 4.176zM2.021 62.471l6.197-14.982 7.654 6.824-8.836 12.342-5.015-4.184z"/>
    <path fill="#00296B" fill-rule="evenodd" d="M50.829 53.444c-2.049 10.421-4.617 13.821-4.617 17.154 0 3.332 4.417 7.442 7.915 27.051-4.145 4.635-21.106 5.279-21.106 5.279s-16.962-.644-21.107-5.279c3.498-19.609 7.915-23.719 7.915-27.051 0-3.333-2.568-6.733-4.617-17.154-2.612.933-9.234 0-9.234 0l4.617-15.176s1.938-10.946 22.426-13.856c20.488 2.91 22.425 13.856 22.425 13.856l4.617 15.176s-6.622.933-9.234 0z"/>
    <path fill="#FFF" fill-rule="evenodd" d="M33.016 11.875a4.61 4.61 0 0 1 4.609 4.609v7.282a4.61 4.61 0 0 1-9.219 0v-7.282a4.61 4.61 0 0 1 4.61-4.609z"/>
    <path fill="#D7D8DC" fill-rule="evenodd" d="M33.031 1.969a6.593 6.593 0 0 1 6.594 6.593V16.5a6.594 6.594 0 1 1-13.188 0V8.562a6.594 6.594 0 0 1 6.594-6.593z"/>
    <path fill="#F0F1F6" fill-rule="evenodd" d="M33.031.656a6.594 6.594 0 0 1 6.594 6.594v7.938a6.594 6.594 0 0 1-13.188 0V7.25A6.594 6.594 0 0 1 33.031.656z"/>
    <path fill="#626C99" fill-rule="evenodd" d="M25.765 8.578s3.281.714 5.277-2.64c3.39 8.974 8.574 8.578 8.574 8.578V0H25.765v8.578z"/>
    <path fill="#E3E4ED" fill-rule="evenodd" d="M20 45c0-7.18 5.82-13 13-13v26c-7.18 0-13-5.82-13-13z"/>
    <path fill="#A3AAC8" fill-rule="evenodd" d="M33 55c-5.523 0-10-4.477-10-10s4.477-10 10-10v20z"/>
    <path fill="#626C99" fill-rule="evenodd" d="M33 36c-5.354 0-9.712 4.211-9.975 9.5-.008-.167-.025-.331-.025-.5 0-5.523 4.477-10 10-10v1zM33 51a5 5 0 1 1 0-10v10z"/>
    <path fill="#E3E4ED" fill-rule="evenodd" d="M33 50a5 5 0 0 1 0-10v10z"/>
    <path fill="#90B4FF" fill-rule="evenodd" d="M33 58V32c7.18 0 13 5.82 13 13s-5.82 13-13 13z"/>
    <path fill="#0B4CD1" fill-rule="evenodd" d="M33 55V35c5.523 0 10 4.477 10 10s-4.477 10-10 10z"/>
    <path fill="#00296B" fill-rule="evenodd" d="M42.975 45.5C42.712 40.211 38.354 36 33 36v-1c5.523 0 10 4.477 10 10 0 .169-.017.333-.025.5zM33 51V41a5 5 0 0 1 0 10z"/>
    <path fill="#90B4FF" fill-rule="evenodd" d="M33 50V40a5 5 0 1 1 0 10z"/>
    <path fill="#FFF" fill-rule="evenodd" d="M63.214 67.664s3.742-5.093-5.1-12.279c-8.842-7.186-10.19-7.361-10.19-7.361s-.712-2.542-3.447-3.898c-2.736-1.356-5.721-2.17-4.643.727.93 2.501 1.849 3.52 2.699 4.333.85.812 4.188 1.776 4.944 3.03.757 1.254 6.008 13.726 13.191 15.451 2.671.642 2.546-.003 2.546-.003zM2.807 67.664s-3.745-5.093 5.105-12.279c8.849-7.186 10.198-7.361 10.198-7.361s.713-2.542 3.45-3.898c2.738-1.356 5.726-2.17 4.647.727-.931 2.501-1.85 3.52-2.701 4.333-.85.812-4.192 1.776-4.949 3.03-.757 1.254-6.013 13.726-13.201 15.451-2.673.642-2.549-.003-2.549-.003z"/>
</svg>
