<svg xmlns="http://www.w3.org/2000/svg" width="1097" height="136">
    <path fill="#E4E9F5" fill-rule="evenodd" d="M276 81.95V136h-1V81.95a2.5 2.5 0 0 1-2-2.45c0-.485.144-.935.384-1.318l-43.957-25.108A2.48 2.48 0 0 1 227.5 54c-.98 0-1.819-.569-2.229-1.39l-36.324 21.032.038.066-10.51 5.997-.305.177-.002-.002-36.338 20.734c.106.276.17.573.17.886a2.5 2.5 0 1 1-5 0c0-.312.064-.608.169-.884l-36.453-20.799-.111.19-47.179-26.931A2.481 2.481 0 0 1 51.5 54c-.781 0-1.47-.366-1.929-.927L4.834 78.626c.103.273.166.565.166.874a2.5 2.5 0 0 1-2 2.45V136H2V81.95A2.5 2.5 0 0 1 2.5 77c.78 0 1.468.365 1.926.924L49.165 52.37A2.464 2.464 0 0 1 49 51.5a2.5 2.5 0 1 1 5 0c0 .309-.063.601-.166.875l36.475 20.821.11-.188 47.161 26.909A2.483 2.483 0 0 1 139.5 99c.776 0 1.46.361 1.919.915l36.345-20.737-.001-.003 47.268-27.369c-.013-.101-.031-.201-.031-.306a2.5 2.5 0 1 1 5 0c0 .308-.063.6-.165.873l44.102 25.19A2.48 2.48 0 0 1 275.5 77a2.5 2.5 0 0 1 .5 4.95z"/>
    <path fill="#0B4CD1" fill-rule="evenodd" d="M189 32.95V135h-1V32.95a2.502 2.502 0 0 1-2-2.45c0-.311.064-.606.168-.881l-44.75-25.533A2.483 2.483 0 0 1 139.5 5a2.486 2.486 0 0 1-1.92-.916L92.831 29.617c.105.275.169.571.169.883a2.502 2.502 0 0 1-2 2.45V135h-1V32.95a2.5 2.5 0 0 1 .5-4.95c.777 0 1.462.362 1.921.918l44.748-25.533A2.478 2.478 0 0 1 137 2.5a2.5 2.5 0 1 1 5 0c0 .314-.064.611-.17.887l44.748 25.533A2.482 2.482 0 0 1 188.5 28a2.5 2.5 0 0 1 .5 4.95z"/>
    <path fill="#E4E9F5" fill-rule="evenodd" d="M549 81.95V136h-1V81.95a2.5 2.5 0 0 1-2-2.45c0-.485.144-.935.384-1.318l-43.957-25.108A2.48 2.48 0 0 1 500.5 54c-.98 0-1.819-.569-2.229-1.39l-36.324 21.032.038.066-10.516 6-.3.174-.001-.002-36.338 20.734c.106.276.17.573.17.886a2.5 2.5 0 1 1-5 0c0-.312.064-.608.169-.884l-36.453-20.799-.111.19-47.179-26.931A2.481 2.481 0 0 1 324.5 54c-.781 0-1.47-.366-1.929-.927l-44.737 25.553c.103.273.166.565.166.874a2.5 2.5 0 0 1-2 2.45V136h-1V81.95a2.5 2.5 0 0 1 .5-4.95c.78 0 1.468.365 1.926.924l44.739-25.553A2.47 2.47 0 0 1 322 51.5a2.5 2.5 0 1 1 5 0c0 .309-.063.601-.166.875l36.475 20.821.11-.188 47.161 26.909A2.483 2.483 0 0 1 412.5 99c.776 0 1.46.361 1.919.915l36.345-20.737-.001-.003 47.268-27.369c-.013-.101-.031-.201-.031-.306a2.5 2.5 0 1 1 5 0c0 .308-.063.6-.165.873l44.102 25.19A2.48 2.48 0 0 1 548.5 77a2.5 2.5 0 0 1 .5 4.95z"/>
    <path fill="#0B4CD1" fill-rule="evenodd" d="M462 32.95V135h-1V32.95a2.502 2.502 0 0 1-2-2.45c0-.311.064-.606.168-.881l-44.75-25.533A2.483 2.483 0 0 1 412.5 5a2.486 2.486 0 0 1-1.92-.916l-44.749 25.533c.105.275.169.571.169.883a2.502 2.502 0 0 1-2 2.45V135h-1V32.95a2.5 2.5 0 0 1 .5-4.95c.777 0 1.462.362 1.921.918l44.748-25.533A2.478 2.478 0 0 1 410 2.5a2.5 2.5 0 1 1 5 0c0 .314-.064.611-.17.887l44.748 25.533A2.482 2.482 0 0 1 461.5 28a2.5 2.5 0 0 1 .5 4.95z"/>
    <path fill="#E4E9F5" fill-rule="evenodd" d="M822 81.95V136h-1V81.95a2.5 2.5 0 0 1-2-2.45c0-.485.144-.935.384-1.318l-43.957-25.108A2.48 2.48 0 0 1 773.5 54c-.98 0-1.819-.569-2.229-1.39l-36.324 21.032.038.066-10.516 6-.3.174-.001-.002-36.338 20.734c.106.276.17.573.17.886a2.5 2.5 0 1 1-5 0c0-.312.064-.608.169-.884l-36.453-20.799-.111.19-47.179-26.931A2.481 2.481 0 0 1 597.5 54c-.781 0-1.47-.366-1.929-.927l-44.737 25.553c.103.273.166.565.166.874a2.5 2.5 0 0 1-2 2.45V136h-1V81.95a2.5 2.5 0 0 1 .5-4.95c.78 0 1.468.365 1.926.924l44.739-25.553A2.47 2.47 0 0 1 595 51.5a2.5 2.5 0 1 1 5 0c0 .309-.063.601-.166.875l36.475 20.821.11-.188 47.161 26.909A2.483 2.483 0 0 1 685.5 99c.776 0 1.46.361 1.919.915l36.345-20.737-.001-.003 47.268-27.369c-.013-.101-.031-.201-.031-.306a2.5 2.5 0 1 1 5 0c0 .308-.063.6-.165.873l44.102 25.19A2.48 2.48 0 0 1 821.5 77a2.5 2.5 0 0 1 .5 4.95z"/>
    <path fill="#0B4CD1" fill-rule="evenodd" d="M735 32.95V135h-1V32.95a2.502 2.502 0 0 1-2-2.45c0-.311.064-.606.168-.881l-44.75-25.533A2.483 2.483 0 0 1 685.5 5a2.486 2.486 0 0 1-1.92-.916l-44.749 25.533c.105.275.169.571.169.883a2.502 2.502 0 0 1-2 2.45V135h-1V32.95a2.5 2.5 0 0 1 .5-4.95c.777 0 1.462.362 1.921.918l44.748-25.533A2.478 2.478 0 0 1 683 2.5a2.5 2.5 0 1 1 5 0c0 .314-.064.611-.17.887l44.748 25.533A2.482 2.482 0 0 1 734.5 28a2.5 2.5 0 0 1 .5 4.95z"/>
    <path fill="#E4E9F5" fill-rule="evenodd" d="M1095 81.95V136h-1V81.95a2.5 2.5 0 0 1-2-2.45c0-.485.144-.935.384-1.318l-43.957-25.108a2.48 2.48 0 0 1-1.927.926c-.98 0-1.819-.569-2.229-1.39l-36.324 21.032.038.066-10.516 6-.3.174-.001-.002-36.338 20.734c.106.276.17.573.17.886a2.5 2.5 0 1 1-5 0c0-.312.064-.608.169-.884l-36.453-20.799-.111.19-47.179-26.931A2.481 2.481 0 0 1 870.5 54c-.781 0-1.47-.366-1.929-.927l-44.737 25.553c.103.273.166.565.166.874a2.5 2.5 0 0 1-2 2.45V136h-1V81.95a2.5 2.5 0 0 1 .5-4.95c.78 0 1.468.365 1.926.924l44.739-25.553A2.47 2.47 0 0 1 868 51.5a2.5 2.5 0 1 1 5 0c0 .309-.063.601-.166.875l36.475 20.821.11-.188 47.161 26.909A2.483 2.483 0 0 1 958.5 99c.776 0 1.46.361 1.919.915l36.345-20.737-.001-.003 47.268-27.368c-.013-.102-.031-.202-.031-.307a2.5 2.5 0 1 1 5 0c0 .308-.063.6-.165.873l44.102 25.19A2.48 2.48 0 0 1 1094.5 77a2.5 2.5 0 0 1 .5 4.95z"/>
    <path fill="#0B4CD1" fill-rule="evenodd" d="M1008 32.95V135h-1V32.95a2.502 2.502 0 0 1-2-2.45c0-.311.064-.606.168-.881l-44.75-25.533A2.483 2.483 0 0 1 958.5 5a2.486 2.486 0 0 1-1.92-.916l-44.749 25.533c.105.275.169.571.169.883a2.502 2.502 0 0 1-2 2.45V135h-1V32.95a2.5 2.5 0 0 1 .5-4.95c.777 0 1.462.362 1.921.918l44.748-25.533A2.478 2.478 0 0 1 956 2.5a2.5 2.5 0 1 1 5 0c0 .314-.064.611-.17.887l44.748 25.533a2.482 2.482 0 0 1 1.922-.92 2.5 2.5 0 0 1 .5 4.95z"/>
</svg>
